<svg width="1080" height="1080" viewBox="0 0 1080 1080" fill="none" xmlns="http://www.w3.org/2000/svg">
<g filter="url(#filter0_d_2005_1859)">
<g clip-path="url(#clip0_2005_1859)">
<rect x="53" y="65" width="973" height="950.195" rx="475.098" fill="#C59676"/>
<path d="M693.615 843.651C865.411 549.062 513.895 426.206 589.068 212.578C594.285 300.143 707.722 387.142 774.199 487.917C870.243 633.041 837.777 761.181 693.421 843.839L693.615 843.651Z" fill="#E7C5A5"/>
<path d="M1020.01 613.603C995.273 767.597 897.297 892.717 766.275 960.278C902.708 853.841 957.204 703.999 947.735 563.027C943.29 498.297 925.318 435.454 895.558 379.593C836.038 267.683 729.945 182.76 612.837 153.509C540.756 135.581 464.616 138.6 392.729 169.361C518.726 104.442 677.768 91.4206 829.274 164.455C836.811 168.04 844.154 171.815 851.498 175.778C977.881 279.384 1047.26 443.002 1019.82 613.603H1020.01Z" fill="#E7C5A5"/>
<path d="M766.276 960.278C676.802 1006.33 571.869 1025.76 464.23 1009.35C414.566 1001.8 367.993 987.076 324.899 966.506C570.323 1057.47 787.726 913.854 888.601 741.554C922.999 682.674 944.063 620.397 947.735 563.027C957.397 703.999 902.708 853.841 766.276 960.278Z" fill="#E7C5A5"/>
<path d="M851.691 175.778C693.615 90.0997 525.103 101.045 392.922 169.173C338.813 197.103 290.694 234.658 252.045 279.195C117.158 434.699 96.8671 674.182 244.701 814.022C144.019 740.422 39.0862 606.621 58.2177 470.744C58.2177 469.234 58.6042 467.913 58.7974 466.592C65.5611 424.886 77.5424 385.443 94.1616 348.643C180.93 155.962 391.956 36.6925 614.77 70.8505C705.403 84.6269 786.18 122.182 851.691 175.778Z" fill="#E7C5A5"/>
<path d="M480.85 952.541C372.245 973.677 218.807 916.873 146.532 819.872C73.8712 722.682 38.8934 598.883 58.2182 470.744C39.0867 606.621 144.02 740.422 244.702 814.022C276.201 837.046 307.314 854.219 334.175 863.655C467.129 910.834 622.307 899.322 674.484 744.951C666.367 869.316 577.474 933.48 480.657 952.352L480.85 952.541Z" fill="#E7C5A5"/>
<path d="M693.615 843.651C865.411 549.062 513.895 426.206 589.068 212.578C548.872 371.478 967.446 610.018 693.615 843.651Z" fill="url(#paint0_linear_2005_1859)" style="mix-blend-mode:multiply"/>
<path d="M829.274 164.266C778.643 143.129 693.228 134.071 612.837 153.32C540.756 135.392 464.616 138.411 392.729 169.172C518.726 104.253 677.768 91.2319 829.274 164.266Z" fill="url(#paint1_linear_2005_1859)" style="mix-blend-mode:multiply"/>
<path d="M766.276 960.278C811.883 923.855 864.832 834.969 888.408 741.554C922.806 682.674 943.87 620.397 947.542 563.026C957.205 703.999 902.516 853.841 766.083 960.278H766.276Z" fill="url(#paint2_linear_2005_1859)" style="mix-blend-mode:multiply"/>
<path d="M244.701 814.022C144.019 740.422 39.0862 606.621 58.2177 470.744C58.2177 469.234 58.6042 467.913 58.7974 466.592C65.5611 424.885 77.5424 385.443 94.1617 348.643C76.9626 573.973 153.102 743.441 244.701 814.211V814.022Z" fill="url(#paint3_linear_2005_1859)" style="mix-blend-mode:multiply"/>
</g>
</g>
<path d="M907.171 471.107V733.908C907.171 757.011 981.862 757.332 999.099 765.033C984.416 787.495 898.234 813.807 872.699 813.807C828.65 813.807 806.626 786.853 806.626 732.945V480.734C806.626 418.483 779.814 387.358 726.19 387.358C697.463 387.358 670.012 399.551 643.839 423.938C618.304 448.325 600.429 481.375 590.215 523.09V733.908C590.215 757.011 599.152 772.413 617.027 780.114C600.429 802.576 580.001 813.807 555.742 813.807C512.332 813.807 490.627 786.853 490.627 732.945V480.734C490.627 418.483 463.496 387.358 409.234 387.358C380.506 387.358 353.056 399.551 326.882 423.938C301.347 448.325 283.472 481.375 273.258 523.09V733.908C273.258 757.011 282.196 772.413 300.07 780.114C283.472 802.576 263.044 813.807 238.786 813.807C195.376 813.807 173.671 786.853 173.671 732.945V383.507C173.671 361.046 75.3603 348.852 57.4856 339.868C74.0835 317.406 183.885 302.646 208.143 302.646C251.553 302.646 273.258 329.92 273.258 384.47V416.237C289.856 381.582 313.476 353.986 344.119 333.45C374.761 312.914 408.595 302.646 445.621 302.646C483.286 302.646 514.247 312.914 538.506 333.45C563.403 353.986 579.362 384.149 586.384 423.938C601.706 387.358 625.326 358.158 657.245 336.338C689.164 313.876 725.871 302.646 767.366 302.646C808.861 302.646 842.376 317.085 867.911 345.964C894.084 374.202 907.171 415.916 907.171 471.107Z" fill="white"/>
<defs>
<filter id="filter0_d_2005_1859" x="49" y="65" width="981" height="958.195" filterUnits="userSpaceOnUse" color-interpolation-filters="sRGB">
<feFlood flood-opacity="0" result="BackgroundImageFix"/>
<feColorMatrix in="SourceAlpha" type="matrix" values="0 0 0 0 0 0 0 0 0 0 0 0 0 0 0 0 0 0 127 0" result="hardAlpha"/>
<feOffset dy="4"/>
<feGaussianBlur stdDeviation="2"/>
<feComposite in2="hardAlpha" operator="out"/>
<feColorMatrix type="matrix" values="0 0 0 0 0.027451 0 0 0 0 0.505882 0 0 0 0 0.215686 0 0 0 0.06 0"/>
<feBlend mode="normal" in2="BackgroundImageFix" result="effect1_dropShadow_2005_1859"/>
<feBlend mode="normal" in="SourceGraphic" in2="effect1_dropShadow_2005_1859" result="shape"/>
</filter>
<linearGradient id="paint0_linear_2005_1859" x1="903.62" y1="220.258" x2="383.586" y2="867.918" gradientUnits="userSpaceOnUse">
<stop stop-color="#7B728C"/>
<stop offset="1" stop-color="#FFA659" stop-opacity="0"/>
</linearGradient>
<linearGradient id="paint1_linear_2005_1859" x1="412.212" y1="-18.3013" x2="719.641" y2="281.455" gradientUnits="userSpaceOnUse">
<stop stop-color="#7B728C"/>
<stop offset="1" stop-color="#FFA659" stop-opacity="0"/>
</linearGradient>
<linearGradient id="paint2_linear_2005_1859" x1="1119.5" y1="458.277" x2="603.684" y2="1100.77" gradientUnits="userSpaceOnUse">
<stop stop-color="#7B728C"/>
<stop offset="1" stop-color="#FFA659" stop-opacity="0"/>
</linearGradient>
<linearGradient id="paint3_linear_2005_1859" x1="108.1" y1="1134" x2="183.206" y2="238.772" gradientUnits="userSpaceOnUse">
<stop stop-color="#7B728C"/>
<stop offset="1" stop-color="#FFA659" stop-opacity="0"/>
</linearGradient>
<clipPath id="clip0_2005_1859">
<rect x="53" y="65" width="973" height="950.195" rx="475.098" fill="white"/>
</clipPath>
</defs>
</svg>
